PathFileType	4	(x/y/z)	S05_P20_T07
DataRate	CameraRate	NumFrames	NumMarkers	Units	OrigDataRate	OrigDataStartFrame	OrigNumFrames
240	240	9	50	mm	240	236	376
Frame#	Time	Sternum			R.Acromium			L.Acromium			Top.Head			R.ASIS			L.ASIS			R.PSIS			L.PSIS			R.Great.Tro			L.Great.Tro			R.Iliac.Crest			L.Iliac.Crest			V.Sacral			R.Thigh.Upper.Post			R.Thigh.Lower.Ant			R.Thigh.Lower.Post			R.Thigh.Upper.Ant			R.Knee.Lat			R.Knee.Med			R.Shank.Upper.Post			R.Shank.Lower.Ant			R.Shank.Lower.Post			R.Shank.Upper.Ant			R.Ankle.Lat			R.Ankle.Med			R.Heel.Upper			R.Heel.Med			R.Heel.Lat			R.Toe.Lat			R.Toe.Med			R.Toe.Tip			L.Thigh.Upper.Post			L.Thigh.Lower.Ant			L.Thigh.Lower.Post			L.Thigh.Upper.Ant			L.Knee.Lat			L.Shank.Upper.Post			L.Shank.Lower.Ant			L.Shank.Lower.Post			L.Shank.Upper.Ant			L.Ankle.Lat			L.Ankle.Med			L.Heel.Upper			L.Heel.Med			L.Heel.Lat			L.Toe.Lat			L.Toe.Med			L.Toe.Tip			Cervical.Spine			Back			
		X1	Y1	Z1	X2	Y2	Z2	X3	Y3	Z3	X4	Y4	Z4	X5	Y5	Z5	X6	Y6	Z6	X7	Y7	Z7	X8	Y8	Z8	X9	Y9	Z9	X10	Y10	Z10	X11	Y11	Z11	X12	Y12	Z12	X13	Y13	Z13	X14	Y14	Z14	X15	Y15	Z15	X16	Y16	Z16	X17	Y17	Z17	X18	Y18	Z18	X19	Y19	Z19	X20	Y20	Z20	X21	Y21	Z21	X22	Y22	Z22	X23	Y23	Z23	X24	Y24	Z24	X25	Y25	Z25	X26	Y26	Z26	X27	Y27	Z27	X28	Y28	Z28	X29	Y29	Z29	X30	Y30	Z30	X31	Y31	Z31	X32	Y32	Z32	X33	Y33	Z33	X34	Y34	Z34	X35	Y35	Z35	X36	Y36	Z36	X37	Y37	Z37	X38	Y38	Z38	X39	Y39	Z39	X40	Y40	Z40	X41	Y41	Z41	X42	Y42	Z42	X43	Y43	Z43	X44	Y44	Z44	X45	Y45	Z45	X46	Y46	Z46	X47	Y47	Z47	X48	Y48	Z48	X49	Y49	Z49	X50	Y50	Z50	

236	0.97917	-48.841	1234.8	344.85	-127.16	1500.7	501.78	-150.88	1509	170.66	-154.27	1798.7	303.28	-130.73	985.35	483.69	-106.2	992.71	234.56	-322.18	1007.6	374.19	-312.94	1004.2	283.2	-230.76	912.79	534.74	-173.55	909.21	149.06	-216.43	1073.4	510.36	-194.42	1064.9	176.86	-331.1	971.83	341.56	-223.28	686.52	524.07	-179.37	603.89	481.25	-249.64	602.31	501.39	-154.8	687.41	506.76	-288.58	509.67	481.59	-266.36	493.06	351.07	-470.27	333.71	450.22	-447.91	246.39	451.85	-503.78	267.74	427.79	-412.28	312.94	471.86	-509.73	159.5	425.75	-479.54	181.7	341.43	-589.46	141.32	356.36	-587.65	110.46	326.21	-595.76	109.73	390.8	-457.67	35.904	457.05	-407.42	41.174	341.94	-350.42	43.513	392.55	-101.41	679.78	162.48	-5.0631	634.4	192.24	-64.401	593.85	182.79	-33.818	718.85	172.2	-19.88	516.47	191.62	-32.8	307.87	191.17	46.609	268.12	197.04	-17.456	237.82	209.82	27.437	335.54	184.57	48.172	111.03	217.5	79.597	135.4	303.05	3.2375	59.591	272.35	20.94	38.003	305.49	10.292	32.768	245.01	186.42	58.985	185.58	209.55	79.781	301.51	266.33	104.35	245.28	-190.72	1543.5	343.99	-312.68	1271.2	351.52
237	0.98333	-42.749	1235.3	344.48	-121.11	1501.3	501.01	-144.95	1509.1	169.89	-148.52	1799.1	302.17	-124.64	985.68	483.4	-100.19	993.25	234.32	-316.13	1007.8	374.04	-306.96	1004.7	283.03	-224.51	912.81	534.45	-167.62	909.84	148.83	-210.4	1073.6	510.08	-188.38	1065.5	176.68	-325.02	972.13	341.34	-215.85	686.46	524.51	-171.36	603.96	482.14	-241.64	602	502.19	-147.42	687.73	507.19	-280.18	509.28	482.84	-257.44	492.18	352.52	-463.86	335.98	451.31	-442.88	248.29	452.88	-498.34	270.55	428.78	-406.24	314.22	472.99	-506	162.41	426.76	-475.39	184.1	342.72	-585.62	146.45	357.32	-584.48	115.88	326.85	-592.82	114.75	391.4	-457.18	36.717	457.11	-406.62	41.873	342.26	-350.01	43.245	392.87	-95.802	680.27	162.46	0.46795	634.74	192.21	-58.937	594.29	182.74	-28.118	719.23	172.1	-14.533	516.8	191.47	-29.051	308.27	190.87	49.973	267.79	197.08	-14.418	238.07	209.53	31.47	335.4	184.55	49.647	110.73	217.45	81.269	134.74	303.08	4.1246	60.084	272.3	21.228	38.295	305.46	10.546	33.182	244.94	187.16	56.931	185.61	210.63	77.372	301.56	267.76	101.1	245.34	-184.82	1543.9	343.2	-306.67	1271.5	351.14
238	0.9875	-36.669	1235.9	344.1	-115.07	1501.9	500.25	-139	1509.3	169.14	-142.75	1799.4	301.09	-118.57	986.05	483.08	-94.222	993.85	234.05	-310.11	1008.1	373.9	-301.01	1005.2	282.87	-218.24	912.83	534.14	-161.75	910.51	148.58	-204.39	1073.9	509.79	-182.39	1066.1	176.49	-318.98	972.48	341.13	-208.25	686.41	524.98	-163.13	604.07	483.07	-233.41	601.68	503.03	-139.87	688.1	507.63	-271.48	508.86	484.13	-248.22	491.27	354.02	-457.1	338.32	452.47	-437.54	250.26	453.96	-492.58	273.45	429.84	-399.87	315.55	474.16	-502	165.45	427.82	-470.97	186.63	344.06	-581.44	151.8	358.32	-580.98	121.55	327.52	-589.59	120.02	392.02	-456.58	37.682	457.17	-405.67	42.697	342.63	-349.5	42.999	393.24	-90.258	680.82	162.39	5.9301	635.12	192.14	-53.541	594.77	182.64	-22.482	719.65	171.97	-9.2963	517.15	191.28	-25.424	308.69	190.53	53.212	267.49	197.07	-11.493	238.35	209.19	35.37	335.28	184.47	51.035	110.48	217.38	82.852	134.16	303.07	4.9862	60.548	272.24	21.509	38.599	305.42	10.788	33.582	244.88	187.83	55.012	185.58	211.63	75.139	301.54	269.08	98.045	245.33	-178.94	1544.4	342.42	-300.66	1271.9	350.76
239	0.99167	-30.607	1236.5	343.73	-109.06	1502.6	499.5	-133.06	1509.6	168.4	-136.97	1799.9	300.04	-112.51	986.44	482.73	-88.288	994.49	233.76	-304.11	1008.5	373.77	-295.09	1005.8	282.72	-211.95	912.87	533.82	-155.93	911.22	148.31	-198.4	1074.2	509.49	-176.44	1066.8	176.29	-312.97	972.86	340.93	-200.47	686.36	525.47	-154.68	604.22	484.02	-224.96	601.36	503.9	-132.16	688.5	508.07	-262.48	508.42	485.46	-238.72	490.35	355.56	-450	340.71	453.69	-431.9	252.31	455.06	-486.49	276.45	430.97	-393.18	316.92	475.37	-497.7	168.63	428.92	-466.28	189.27	345.45	-576.92	157.35	359.37	-577.16	127.44	328.22	-586.06	125.52	392.68	-455.86	38.812	457.24	-404.55	43.662	343.03	-348.85	42.785	393.69	-84.781	681.4	162.27	11.32	635.52	192.01	-48.219	595.28	182.47	-16.912	720.1	171.8	-4.1775	517.5	191.03	-21.924	309.12	190.15	56.323	267.21	197.01	-8.6838	238.65	208.83	39.133	335.17	184.34	52.336	110.26	217.29	84.344	133.65	303.03	5.8172	60.977	272.18	21.783	38.905	305.37	11.018	33.965	244.8	188.43	53.228	185.51	212.56	73.077	301.48	270.28	95.176	245.25	-173.08	1544.9	341.64	-294.67	1272.3	350.37
240	0.99583	-24.564	1237.2	343.37	-103.07	1503.3	498.75	-127.11	1509.9	167.68	-131.18	1800.3	299.01	-106.49	986.86	482.35	-82.391	995.16	233.43	-298.14	1008.8	373.66	-289.21	1006.4	282.59	-205.63	912.91	533.5	-150.17	911.96	148.03	-192.45	1074.6	509.2	-170.55	1067.5	176.09	-306.99	973.28	340.74	-192.52	686.3	526	-146.03	604.39	484.99	-216.29	601.02	504.8	-124.31	688.95	508.53	-253.2	507.97	486.83	-228.93	489.41	357.13	-442.56	343.15	454.98	-425.95	254.42	456.21	-480.08	279.54	432.16	-386.16	318.33	476.62	-493.13	171.93	430.07	-461.32	192.03	346.87	-572.06	163.09	360.47	-573	133.55	328.97	-582.23	131.23	393.37	-454.98	40.121	457.32	-403.24	44.783	343.49	-348.04	42.615	394.2	-79.378	682.01	162.1	16.631	635.94	191.82	-42.978	595.82	182.24	-11.412	720.58	171.6	0.81814	517.84	190.75	-18.553	309.55	189.75	59.305	266.95	196.91	-5.991	238.97	208.44	42.757	335.08	184.17	53.553	110.08	217.19	85.746	133.19	302.96	6.613	61.368	272.11	22.047	39.208	305.32	11.236	34.327	244.73	188.96	51.579	185.4	213.41	71.181	301.38	271.38	92.497	245.14	-167.24	1545.4	340.87	-288.69	1272.8	349.97
241	1	-18.545	1237.9	343	-97.105	1504.1	498.02	-121.16	1510.2	166.98	-125.38	1800.8	298.01	-100.49	987.3	481.94	-76.533	995.86	233.08	-292.2	1009.2	373.56	-283.36	1007	282.46	-199.31	912.94	533.18	-144.47	912.74	147.73	-186.53	1074.9	508.9	-164.71	1068.2	175.88	-301.06	973.73	340.56	-184.41	686.24	526.55	-137.19	604.59	485.97	-207.42	600.68	505.73	-116.3	689.43	508.99	-243.65	507.5	488.23	-218.89	488.46	358.72	-434.79	345.64	456.33	-419.68	256.6	457.37	-473.35	282.7	433.41	-378.82	319.77	477.9	-488.26	175.35	431.26	-456.09	194.91	348.33	-566.87	168.98	361.62	-568.51	139.84	329.75	-578.09	137.13	394.1	-453.93	41.62	457.42	-401.7	46.075	343.99	-347.05	42.503	394.79	-74.053	682.65	161.89	21.859	636.37	191.58	-37.826	596.37	181.97	-5.9851	721.07	171.36	5.6862	518.17	190.42	-15.309	309.99	189.32	62.158	266.7	196.78	-3.4144	239.29	208.04	46.24	334.99	183.97	54.692	109.92	217.09	87.059	132.79	302.87	7.3689	61.72	272.03	22.301	39.502	305.26	11.443	34.665	244.66	189.43	50.063	185.27	214.18	69.442	301.26	272.38	90.002	245	-161.42	1546	340.11	-282.73	1273.3	349.57
242	1.0042	-12.551	1238.6	342.65	-91.172	1504.9	497.29	-115.21	1510.7	166.3	-119.57	1801.4	297.04	-94.516	987.74	481.5	-70.713	996.58	232.7	-286.3	1009.6	373.47	-277.55	1007.7	282.35	-192.98	912.97	532.86	-138.83	913.54	147.42	-180.65	1075.3	508.61	-158.93	1069	175.67	-295.17	974.2	340.39	-176.16	686.18	527.14	-128.17	604.83	486.96	-198.36	600.34	506.69	-108.16	689.95	509.47	-233.83	507.01	489.65	-208.6	487.52	360.32	-426.69	348.17	457.73	-413.11	258.85	458.56	-466.31	285.95	434.73	-371.17	321.25	479.2	-483.11	178.88	432.49	-450.59	197.89	349.82	-561.34	175.01	362.81	-563.68	146.29	330.57	-573.64	143.19	394.86	-452.66	43.319	457.53	-399.91	47.55	344.55	-345.83	42.466	395.46	-68.814	683.31	161.64	26.996	636.8	191.29	-32.772	596.93	181.65	-0.63616	721.56	171.08	10.424	518.49	190.07	-12.192	310.41	188.89	64.885	266.46	196.62	-0.95191	239.62	207.63	49.587	334.9	183.74	55.754	109.78	216.98	88.285	132.43	302.78	8.0801	62.033	271.95	22.544	39.782	305.21	11.637	34.977	244.6	189.85	48.677	185.12	214.88	67.851	301.12	273.29	87.686	244.84	-155.63	1546.5	339.36	-276.78	1273.8	349.17
243	1.0083	-6.5852	1239.4	342.3	-85.272	1505.7	496.58	-109.27	1511.1	165.64	-113.76	1801.9	296.11	-88.58	988.19	481.04	-64.933	997.31	232.3	-280.44	1010	373.39	-271.78	1008.3	282.25	-186.65	913	532.53	-133.24	914.36	147.1	-174.82	1075.6	508.33	-153.21	1069.7	175.45	-289.32	974.68	340.24	-167.76	686.12	527.75	-118.98	605.09	487.95	-189.12	599.99	507.66	-99.897	690.5	509.95	-223.76	506.52	491.08	-198.09	486.59	361.91	-418.29	350.74	459.18	-406.23	261.16	459.76	-458.97	289.26	436.09	-363.21	322.76	480.52	-477.68	182.52	433.74	-444.83	200.99	351.31	-555.48	181.14	364.05	-558.52	152.86	331.44	-568.88	149.37	395.67	-451.15	45.225	457.67	-397.84	49.219	345.16	-344.37	42.519	396.2	-63.665	683.97	161.36	32.036	637.21	190.94	-27.824	597.49	181.29	4.6302	722.04	170.75	15.03	518.79	189.68	-9.1986	310.83	188.45	67.489	266.22	196.45	1.3994	239.95	207.22	52.798	334.8	183.48	56.746	109.67	216.87	89.427	132.11	302.67	8.7424	62.309	271.87	22.774	40.045	305.15	11.82	35.262	244.53	190.23	47.418	184.96	215.52	66.399	300.98	274.11	85.542	244.68	-149.86	1547.1	338.62	-270.86	1274.3	348.77
244	1.0125	-0.65019	1240.2	341.97	-79.407	1506.6	495.89	-103.34	1511.6	165	-107.95	1802.5	295.22	-82.679	988.64	480.57	-59.192	998.05	231.88	-274.62	1010.4	373.32	-266.05	1009	282.17	-180.31	913.01	532.21	-127.7	915.18	146.76	-169.03	1076	508.06	-147.55	1070.5	175.23	-283.51	975.17	340.08	-159.23	686.05	528.39	-109.64	605.39	488.94	-179.72	599.65	508.64	-91.517	691.08	510.45	-213.46	506.03	492.51	-187.39	485.7	363.48	-409.59	353.34	460.66	-399.05	263.52	460.97	-451.33	292.63	437.5	-354.96	324.31	481.85	-471.96	186.26	435.02	-438.8	204.2	352.81	-549.31	187.35	365.32	-553.03	159.51	332.34	-563.79	155.66	396.52	-449.36	47.343	457.82	-395.46	51.089	345.81	-342.61	42.682	397.02	-58.612	684.63	161.04	36.974	637.6	190.55	-22.991	598.03	180.89	9.8097	722.51	170.38	19.505	519.07	189.28	-6.3247	311.23	188.02	69.974	265.99	196.26	3.6435	240.27	206.82	55.879	334.7	183.22	57.671	109.57	216.76	90.488	131.83	302.57	9.3527	62.551	271.8	22.992	40.287	305.09	11.99	35.521	244.47	190.57	46.282	184.8	216.09	65.076	300.84	274.85	83.561	244.52	-144.11	1547.7	337.9	-264.97	1274.8	348.36
